<!--
  - Copyright (c) 2022.   Analog Devices Inc.
  -
  - Licensed under the Apache License, Version 2.0 (the "License");
  - you may not use this file except in compliance with the License.
  - You may obtain a copy of the License at
  -
  -     http://www.apache.org/licenses/LICENSE-2.0
  -
  - Unless required by applicable law or agreed to in writing, software
  - distributed under the License is distributed on an "AS IS" BASIS,
  - WITHOUT WARRANTIES OR CONDITIONS OF ANY KIND, either express or implied.
  - See the License for the specific language governing permissions and
  - limitations under the License.
  -->

<svg id="svg" version="1.1" xmlns="http://www.w3.org/2000/svg" xmlns:xlink="http://www.w3.org/1999/xlink" width="400" height="277.6203966005666" viewBox="0, 0, 400,277.6203966005666"><g id="svgg"><path id="path0" d="M42.986 15.486 C 52.344 15.527,67.656 15.527,77.014 15.486 C 86.372 15.446,78.715 15.412,60.000 15.412 C 41.285 15.412,33.628 15.446,42.986 15.486 M328.147 15.486 C 337.592 15.527,352.967 15.527,362.313 15.486 C 371.659 15.446,363.931 15.412,345.139 15.412 C 326.347 15.412,318.701 15.446,328.147 15.486 M384.026 136.528 C 384.026 200.847,384.058 227.201,384.097 195.092 C 384.136 162.983,384.136 110.358,384.097 78.148 C 384.058 45.937,384.026 72.208,384.026 136.528 M194.640 176.790 C 182.874 179.290,176.086 186.779,173.855 199.722 C 173.438 202.143,173.692 209.724,174.247 211.389 C 174.476 212.076,174.813 213.372,174.997 214.267 C 177.379 225.872,191.207 234.406,204.731 232.618 C 206.331 232.407,208.039 232.232,208.529 232.228 C 216.205 232.176,226.407 223.060,228.473 214.408 C 228.705 213.435,229.097 211.952,229.344 211.113 C 229.984 208.938,229.977 200.295,229.333 197.853 C 229.082 196.902,228.763 195.524,228.624 194.791 C 226.175 181.879,210.291 173.466,194.640 176.790 M43.125 257.986 C 52.406 258.027,67.594 258.027,76.875 257.986 C 86.156 257.945,78.563 257.912,60.000 257.912 C 41.438 257.912,33.844 257.945,43.125 257.986 M328.285 257.986 C 337.655 258.027,352.905 258.027,362.174 257.986 C 371.444 257.945,363.778 257.912,345.139 257.912 C 326.500 257.912,318.916 257.946,328.285 257.986 " stroke="none" fill="#c40404" fill-rule="evenodd"></path><path id="path1" d="M23.730 16.080 C 22.817 16.496,22.455 16.898,21.854 18.168 L 21.109 19.742 21.180 136.746 L 21.250 253.750 21.944 255.139 C 22.476 256.202,22.930 256.674,23.878 257.153 L 25.118 257.778 60.000 257.778 L 94.882 257.778 96.122 257.153 C 98.544 255.931,98.472 256.476,98.472 239.444 C 98.472 225.444,98.442 224.522,97.949 223.529 C 96.912 221.443,97.822 221.537,77.847 221.450 L 60.000 221.373 60.000 136.667 L 60.000 51.960 77.847 51.883 C 97.822 51.796,96.912 51.890,97.949 49.804 C 98.442 48.811,98.472 47.887,98.472 33.750 C 98.472 17.076,98.545 17.746,96.577 16.279 L 95.793 15.694 60.327 15.629 C 26.296 15.567,24.815 15.585,23.730 16.080 M308.750 16.073 C 307.641 16.577,307.350 16.962,306.540 18.992 C 305.881 20.644,305.902 46.001,306.564 48.279 C 307.652 52.021,307.189 51.941,327.708 51.943 L 344.722 51.944 344.722 136.667 L 344.722 221.389 327.569 221.390 C 309.303 221.392,308.810 221.425,307.488 222.747 C 306.188 224.047,306.053 225.843,306.157 240.556 L 306.250 253.750 306.944 255.134 C 308.322 257.881,304.632 257.628,344.583 257.719 C 384.948 257.810,382.488 257.998,383.573 254.750 C 383.807 254.051,383.885 223.381,383.874 136.556 C 383.857 4.298,384.096 17.402,381.676 16.181 L 380.438 15.556 345.149 15.562 C 311.630 15.567,309.805 15.593,308.750 16.073 " stroke="none" fill="#4474c4" fill-rule="evenodd"></path><path id="path2" d="" stroke="none" fill="#c83c30" fill-rule="evenodd"></path></g></svg>
